<?xml version="1.0" encoding="UTF-8"?>
<svg width="54px" height="55px" viewBox="0 0 54 55" version="1.1" xmlns="http://www.w3.org/2000/svg" xmlns:xlink="http://www.w3.org/1999/xlink">
    <!-- Generator: Sketch 49.1 (51147) - http://www.bohemiancoding.com/sketch -->
    <title>Untitled</title>
    <desc>Created with Sketch.</desc>
    <defs></defs>
    <g id="Page-1" stroke="none" stroke-width="1" fill="none" fill-rule="evenodd">
        <ellipse id="Oval" fill="#24488E" cx="27" cy="27.5" rx="27" ry="27.5"></ellipse>
        <g id="if_camping-nature-25_808469" transform="translate(10.000000, 8.000000)" fill-rule="nonzero">
            <path d="M16.5,0 C8.68421053,1.625 0,15.1125 0,23.5625 C0,32.0125 7.46842105,39 16.5,39 C25.5315789,39 33,32.0125 33,23.5625 C33,15.1125 24.3157895,1.625 16.5,0 Z M16.5,35.75 C9.37894737,35.75 3.47368421,30.225 3.47368421,23.5625 C3.47368421,16.9 10.4210526,6.5 16.5,3.25 C22.5789474,6.5 29.5263158,16.9 29.5263158,23.5625 C29.5263158,30.225 23.6210526,35.75 16.5,35.75 Z" id="Shape" fill="#FFFFFF"></path>
            <path d="M23.1597938,19.7583893 L17.2010309,25.3959732 L17.2010309,19.5973154 L21.056701,16.2147651 C21.4072165,15.8926174 21.4072165,15.409396 21.056701,15.0872483 C20.7061856,14.7651007 20.1804124,14.7651007 19.8298969,15.0872483 L17.2010309,17.3422819 L17.2010309,8.80536913 C17.2010309,8.32214765 16.8505155,8 16.3247423,8 C15.7989691,8 15.4484536,8.32214765 15.4484536,8.80536913 L15.4484536,17.3422819 L12.9948454,14.9261745 C12.6443299,14.6040268 11.943299,14.6040268 11.5927835,14.9261745 C11.242268,15.2483221 11.242268,15.7315436 11.5927835,16.0536913 L15.4484536,19.4362416 L15.4484536,25.2348993 L9.48969072,19.7583893 C9.13917526,19.4362416 8.61340206,19.4362416 8.2628866,19.7583893 C7.91237113,20.0805369 7.91237113,20.5637584 8.2628866,20.885906 L15.6237113,27.4899329 L15.6237113,31.1946309 C15.6237113,31.6778523 15.9742268,32 16.5,32 C17.0257732,32 17.3762887,31.6778523 17.3762887,31.1946309 L17.3762887,27.4899329 L24.7371134,20.885906 C25.0876289,20.5637584 25.0876289,20.0805369 24.7371134,19.7583893 C24.2113402,19.4362416 23.5103093,19.4362416 23.1597938,19.7583893 Z" id="Shape" fill="#ECECEC"></path>
        </g>
    </g>
</svg>