<?xml version="1.0" encoding="UTF-8"?>
<svg width="42px" height="42px" viewBox="0 0 42 42" version="1.1" xmlns="http://www.w3.org/2000/svg" xmlns:xlink="http://www.w3.org/1999/xlink">
    <!-- Generator: Sketch 49.1 (51147) - http://www.bohemiancoding.com/sketch -->
    <title>Untitled</title>
    <desc>Created with Sketch.</desc>
    <defs></defs>
    <g id="Page-1" stroke="none" stroke-width="1" fill="none" fill-rule="evenodd">
        <circle id="Oval" fill="#284A9F" cx="21" cy="21" r="21"></circle>
        <g id="if_Leaf_2998123" transform="translate(3.000000, 7.000000)" fill-rule="nonzero">
            <path d="M16.2958295,22.9051655 C16.2958295,22.9051655 23.7137298,24.0662125 27.6084105,18.2633398 L28.6287965,17.2582014 L27.6084105,16.9097692 L29.0919906,15.0235107 L28.7205293,14.3467255 L29.9719461,12.5088932 L29.4623194,11.7553347 L30.5755707,7.72178891 L30.1588092,7.3828057 C30.1588092,7.3828057 31.0863299,2.54727525 30.9934646,1 C30.9934646,1 29.0466904,3.12720819 28.2120351,3.03035585 L27.3773798,2.9335035 L25.0591444,4.52920493 C25.0591444,4.52920493 23.343401,3.32091288 22.2312822,4.5776311 C22.2312822,4.5776311 20.3762409,4.62605727 20.2845081,5.64182576 C20.2845081,5.64182576 19.1712568,4.67448345 18.337734,6.07648018 L16.8983215,7.47965805 L16.4815601,6.65759425 C16.4815601,6.65759425 12.1701179,11.6384032 13.1429387,18.3105848 C13.1429387,18.3117659 14.3026227,21.5504138 16.2958295,22.9051655 Z" id="Shape"></path>
            <path d="M1,14 C1,14 14.6333314,16.1597054 11.5445466,26.2735062 C11.5445466,26.2735062 5.05874515,30.2007883 2.50020532,19.7931908 C2.50020532,19.7931908 1.95163887,16.5602282 1.32332011,14.7650705 C1.21662448,14.4604813 1.1088511,14.1990622 1,14 Z" id="Shape"></path>
            <path d="M31,1 L23.7557035,12.4122195 L19.0988136,18.0699023 L15.979128,23 C15.979128,23 12.527044,19.0372597 13.0549059,15.79738 C13.0549059,15.79738 13.5960195,10.1692258 16.2342244,7.15612585 L16.6118996,6.65768281 L17.018287,7.47975948 L18.4196608,6.07774079 C18.4196608,6.07774079 19.2788167,4.62729518 20.1832494,5.93246 C20.1832494,5.93246 20.9993371,4.46784065 21.9932192,4.59540427 C21.9932192,4.59540427 23.7104267,2.88628798 24.9759699,4.53044132 L27.2364996,2.93471491 L27.7787176,3.2252765 L30.7625726,1.00118114 L31,1.00118114 L31,1 Z" id="Shape"></path>
            <path d="M1,14 C1,14 8.81857923,22.2249759 11,24.4358088 C11,24.4358088 4.02076503,27.882294 1.7715847,17.7387217 C1.7715847,17.7387217 1.53661202,17.121425 1,14 Z" id="Shape"></path>
            <path d="M30.2956197,6.4867938 C30.2853636,6.47891369 30.276247,6.47103357 30.2648514,6.46427919 C30.5486037,5.38357785 31.1149687,2.86194139 30.9793602,0.417980343 C30.9691041,0.241240645 30.8540078,0.0870155576 30.6853518,0.0262261073 C30.5166958,-0.0334376125 30.3286672,0.0104658794 30.2055939,0.139924894 C29.4512002,0.936942132 28.155512,2.06042123 27.4831672,2.22815509 L27.2233458,2.0885645 C27.0854582,2.01539201 26.9190813,2.0187692 26.7846123,2.09531888 L24.4097537,3.46420724 C24.2467956,3.28746755 24.0029282,3.10059627 23.6564997,3.00378344 C22.9670613,2.81015779 22.1454332,3.05218986 21.2064296,3.71862235 C20.8463263,3.78504045 20.09877,3.98654622 19.6007791,4.55841735 C19.4378209,4.42445541 19.2304196,4.31075663 18.9728774,4.27473325 C18.4224663,4.19480638 17.8629387,4.49650217 17.3432959,5.1201569 L16.373524,6.00385539 L16.3108478,5.89578526 C16.2379155,5.7685777 16.1045861,5.68414791 15.9564423,5.67289061 C15.799182,5.6616333 15.6635735,5.72354848 15.5712685,5.838373 C15.3980542,6.05226181 13.8721734,7.95699792 13.5428384,8.71686605 C13.493837,8.79228999 8.84554133,16.0723895 14.8328288,21.4781477 C14.2459515,23.0879424 13.9188957,24.9667867 14.0818538,27.0561426 C13.5473967,26.2928973 12.9377281,25.5037602 12.2813372,24.7123716 C13.9223144,20.1745517 10.3246999,16.6937928 10.2893733,16.6622724 C6.76241201,13.5800221 0.756891474,12.8190282 0.502767929,12.7875078 C0.317018433,12.7672446 0.133548071,12.8606802 0.0480805113,13.0272884 C-0.0373870484,13.1938965 -0.00661872693,13.3954023 0.122152396,13.5304899 C0.534675818,13.9616447 0.993921506,15.7673166 1.39846796,17.3602253 C1.77680435,18.8450639 2.16653643,20.3805604 2.62350298,21.3700776 C3.66734678,23.6316703 5.11117875,25.0771083 6.91511405,25.6658654 C7.56694664,25.8786285 8.20396485,25.9585553 8.79426079,25.9585553 C10.0785533,25.9585553 11.1360719,25.5803099 11.6534356,25.3562895 C12.8043987,26.7476925 13.8117763,28.1244609 14.4544924,29.3289926 C14.455632,29.3301184 14.4567715,29.3312441 14.4579111,29.3323698 C14.7211512,30.4277057 15.1051854,31.5646935 15.6738296,32.7467106 C15.7501806,32.9054386 15.9108596,33 16.078376,33 C16.1421918,33 16.2082867,32.9864912 16.2698234,32.9572222 C16.4931786,32.8525293 16.5889022,32.5891083 16.4829225,32.3673394 C14.5342621,28.3102065 14.6641728,24.7720353 15.5951994,22.0297557 C15.6111534,22.0320071 15.6236886,22.0455159 15.6396425,22.0466416 C15.680667,22.0488931 15.8652769,22.0590247 16.1615644,22.0590247 C17.8344495,22.0590247 23.1015303,21.7460716 26.8165202,18.0379151 L27.3190695,17.566234 C27.4147931,17.4761755 27.4637945,17.3512195 27.4580967,17.2262634 C27.8204792,16.9538366 28.1999551,16.5823455 28.4381247,16.1050357 C28.5053592,15.9699481 28.4985218,15.8100943 28.4187521,15.6795096 C28.3492385,15.5669365 28.2330026,15.4915126 28.1030919,15.4723751 C28.5566397,14.8723608 29.1070508,14.0145541 29.1492148,13.321104 C29.1549127,13.2378 29.13554,13.1567474 29.0967947,13.0847006 C29.4831081,12.5285897 29.9275394,11.7439555 29.9412142,11.0606371 C29.9434934,10.9210465 29.878538,10.7870845 29.7657208,10.701529 C29.6916489,10.6452425 29.6016231,10.613722 29.5104577,10.6092191 C29.9036085,9.54202655 30.5144166,7.72172023 30.460857,6.80424982 C30.4517404,6.68041946 30.3924829,6.56559494 30.2956197,6.4867938 Z M7.19544764,24.8260704 C5.63765892,24.3183659 4.3738786,23.0316559 3.43715415,21.0030894 C3.01437462,20.0867447 2.63489865,18.5906488 2.26681836,17.1452108 C1.93178553,15.8269803 1.62866058,14.6314544 1.28792991,13.8107968 C3.07932996,14.1417616 7.14758581,15.0997583 9.68312342,17.3151961 C9.71389174,17.3444651 12.6118118,20.1756774 11.5998759,23.9097257 C11.0802331,23.3074599 10.5446364,22.7130741 10.0067606,22.1321972 C9.87684988,21.8001066 9.13841017,19.8019349 9.46546603,18.0829443 C9.51104873,17.842038 9.35150928,17.6112632 9.10764185,17.566234 C8.86719311,17.5223305 8.63130265,17.6799328 8.58458038,17.9185877 C8.40111002,18.8833388 8.50595023,19.8908676 8.67574578,20.7239082 C8.282595,20.3175195 7.9008399,19.9313939 7.52820134,19.5599028 C7.52592221,19.5542742 7.52820134,19.5486455 7.52592221,19.5430169 C7.51680567,19.5238794 6.6644092,17.5414679 7.0393269,16.1500649 C7.10314268,15.9136615 6.96069675,15.6716295 6.72138758,15.6085885 C6.48549711,15.5477991 6.23707141,15.686264 6.17325563,15.9226674 C5.97041262,16.6769069 6.05018234,17.5302106 6.20174481,18.2551811 C4.86389261,16.9617167 3.89639984,16.0904012 3.78016395,15.986834 C3.59555403,15.8236031 3.31294129,15.8359861 3.14656444,16.0172287 C2.9801876,16.1984714 2.9938624,16.4787783 3.17733277,16.6431349 C3.20468239,16.667901 4.10835938,17.4818042 5.40290802,18.7302394 C4.79551856,18.5670085 4.16419819,18.4251664 3.70267337,18.4004003 C3.44057285,18.4004003 3.24456725,18.5737628 3.23089244,18.8180464 C3.21721763,19.0623299 3.40638583,19.2705901 3.65367197,19.2840988 C4.52202237,19.3313795 6.21086135,19.880736 6.76697028,20.068733 C7.1863311,20.4863791 7.62050631,20.9276655 8.06721675,21.389215 C7.22051813,21.1325484 6.24846708,20.8781333 5.62056541,20.8432357 C5.37897711,20.8466129 5.16245929,21.0165982 5.14878448,21.2608817 C5.13510967,21.5040395 5.32427787,21.7134254 5.57156401,21.7269342 C6.59717472,21.7820949 8.83642479,22.5611005 9.34923015,22.7445946 C9.92585129,23.3659979 10.4944954,24.0020356 11.0460461,24.6448278 C10.2882337,24.9330148 8.78172555,25.3461579 7.19544764,24.8260704 Z M29.3452204,7.1644836 C29.3976405,7.22527305 29.4660146,7.26917654 29.5389469,7.29394262 C29.388524,8.39152991 28.6717361,10.3322894 28.3674715,11.0842774 C28.3036558,11.240754 28.3355637,11.4186194 28.45066,11.5447012 C28.5566397,11.6617772 28.7161792,11.7101836 28.8745791,11.6820403 C28.6101994,12.2899349 28.1008128,12.9473615 27.8649223,13.2141596 C27.7281742,13.3695105 27.7179181,13.5991595 27.8409914,13.7657676 C27.8922719,13.8355629 27.9629251,13.8862208 28.0392761,13.9166155 C27.7464073,14.5031211 27.2142293,15.1898168 26.8427303,15.593954 C26.7242153,15.7222873 26.6934469,15.9069071 26.7629606,16.0667609 C26.830195,16.2198602 26.9771992,16.3223017 27.1447157,16.333559 C26.6911678,16.7455764 26.1589898,16.9650939 26.1510128,16.9673453 C25.9390533,17.0540266 25.8262361,17.2859271 25.892331,17.5031931 C25.9060058,17.5504738 25.9287972,17.5932515 25.9561468,17.6315264 C22.2969957,21.0695075 17.0515666,21.184332 15.9222553,21.1696975 C16.5854835,19.6116864 17.4903001,18.3553711 18.3666275,17.4750498 L24.6559003,15.7234131 C24.8940699,15.656995 25.0330972,15.4127114 24.9658627,15.1774337 C24.8986282,14.9421561 24.651342,14.8059427 24.4131724,14.871235 L19.8138782,16.1523164 C21.2588497,14.8104456 22.3801841,13.5057239 23.2530928,12.2899349 C23.2724654,12.2820547 23.2952568,12.2843062 23.3134898,12.2741746 L26.6398873,10.3581812 C26.854126,10.2354766 26.9259187,9.96417551 26.8017059,9.75253816 C26.677493,9.54090082 26.4039968,9.47223125 26.1897581,9.59268442 L24.3140301,10.67226 C26.0552892,7.71271438 26.271807,5.59971812 26.2843422,5.4590018 C26.3048544,5.215844 26.1236632,5.00195519 25.8775166,4.98056631 C25.6336492,4.96930901 25.4137127,5.14154578 25.3920609,5.38470358 C25.3897818,5.41734977 25.1721244,7.46955658 23.4479588,10.3570555 L23.2439762,6.83126735 C23.2291619,6.58923528 23.0422728,6.40461547 22.7710557,6.41474705 C22.5237696,6.42825581 22.3346014,6.6376417 22.3494158,6.88192523 L22.622912,11.6178737 C21.6759314,12.9687504 20.4041741,14.4434574 18.7073582,15.9519364 L18.8589206,11.3578299 C18.8680372,11.1135464 18.6731711,10.9086635 18.425885,10.9007833 C18.1945528,10.8917775 17.9723371,11.0854031 17.9643602,11.328561 L17.7831689,16.7962343 C16.8692358,17.7013217 15.9165574,18.9857802 15.1997695,20.5775632 C10.1685792,15.7144072 14.1160408,9.46885406 14.3280004,9.13451208 C14.5354017,8.66620817 15.3114471,7.61815302 15.8618582,6.90781703 L15.8721143,6.92470299 C15.9393488,7.04177897 16.0578638,7.12283157 16.1923328,7.14309472 C16.3268017,7.16560933 16.4646894,7.12283157 16.5649713,7.03164739 L17.9905702,5.72692567 C18.3233239,5.33179425 18.6344258,5.1201569 18.8406876,5.1494259 C19.0401119,5.17644343 19.2007909,5.43198427 19.2383966,5.51753979 C19.3113289,5.68527364 19.4788453,5.79334378 19.666874,5.78433793 C19.8514839,5.77645782 20.0133025,5.65825611 20.0736995,5.4848936 C20.317567,4.77793481 21.2531519,4.6045723 21.4639719,4.57192612 C21.5312063,4.55954308 21.5950221,4.53252555 21.6497214,4.49199925 C22.5602358,3.82556675 23.1015303,3.77378315 23.3989574,3.85145856 C23.7260133,3.93701408 23.8536448,4.2139438 23.855924,4.21957245 C23.9037858,4.33889989 24.0040677,4.4312098 24.1260014,4.47286183 C24.2479352,4.51338813 24.3835437,4.49987936 24.4963609,4.43683845 L27.0159445,2.98464602 L27.1891588,3.07808166 C27.2643702,3.11860796 27.3521169,3.13324246 27.4387241,3.12986527 C28.2443983,3.06457289 29.3509183,2.17974867 30.0984745,1.49080157 C30.0380775,4.16103446 29.2643111,6.71756857 29.2551946,6.74683756 C29.211891,6.89205681 29.2460781,7.04965908 29.3452204,7.1644836 Z" id="Shape" fill="#FFFFFF"></path>
        </g>
    </g>
</svg>