<?xml version="1.0" encoding="UTF-8"?>
<svg width="543px" height="578px" viewBox="0 0 543 578" version="1.1" xmlns="http://www.w3.org/2000/svg" xmlns:xlink="http://www.w3.org/1999/xlink">
    <!-- Generator: Sketch 49.3 (51167) - http://www.bohemiancoding.com/sketch -->
    <title>Untitled 2</title>
    <desc>Created with Sketch.</desc>
    <defs></defs>
    <g id="Page-1" stroke="none" stroke-width="1" fill="none" fill-rule="evenodd">
        <g id="if_Leaf_2998123">
            <path d="M285.677017,401.340397 C285.677017,401.340397 415.490272,421.658719 483.647184,320.108447 L501.503939,302.518525 L483.647184,296.420961 L509.609835,263.411438 L503.109263,251.567697 L525.009057,219.405631 L516.090589,206.218358 L535.572487,135.631306 L528.279161,129.6991 C528.279161,129.6991 544.510773,45.0773169 542.88563,18 C542.88563,18 508.817082,55.2261434 494.210614,53.5312274 L479.604146,51.8363113 L439.035027,79.7610864 C439.035027,79.7610864 409.009518,58.6159755 389.547439,80.6085443 C389.547439,80.6085443 357.084216,81.4560023 355.478892,99.2319509 C355.478892,99.2319509 335.996994,82.3034605 321.410345,106.838403 L296.220627,131.394016 L288.927302,117.0079 C288.927302,117.0079 213.477064,204.172056 230.501428,320.935234 C230.501428,320.955904 250.795898,377.632242 285.677017,401.340397 Z" id="Shape"></path>
            <path d="M18,245 C18,245 257.202997,282.87791 203.008863,460.258416 C203.008863,460.258416 89.2125287,529.136902 44.3217843,346.603654 C44.3217843,346.603654 34.6969366,289.902464 23.6727983,258.41816 C21.800775,253.076134 19.909842,248.491245 18,245 Z" id="Shape"></path>
            <path d="M543,18 L416.224811,217.713841 L334.729238,316.72329 L280.13474,403 C280.13474,403 219.72327,333.652045 228.960853,276.95415 C228.960853,276.95415 238.430341,178.461451 284.598927,125.732202 L291.208243,117.009449 L298.320022,131.395791 L322.844064,106.860464 C322.844064,106.860464 337.879292,81.4776657 353.706864,104.31805 C353.706864,104.31805 367.988399,78.6872114 385.381336,80.9195747 C385.381336,80.9195747 415.432467,51.0100397 437.579473,79.7827231 L477.138743,51.8575109 L486.627558,56.9423388 L538.84502,18.0206699 L543,18.0206699 L543,18 Z" id="Shape"></path>
            <path d="M18,245 C18,245 154.825137,389.310941 193,428.101009 C193,428.101009 70.863388,488.571158 31.5027323,310.597572 C31.5027323,310.597572 27.3907103,299.76682 18,245 Z" id="Shape"></path>
            <path d="M530.661983,113.617176 C530.482336,113.479155 530.322649,113.341133 530.123042,113.222829 C535.093284,94.2941817 545.013806,50.1273371 542.63847,7.32098904 C542.458823,4.22536645 540.442781,1.52409068 537.488581,0.459354243 C534.534381,-0.58566485 531.240848,0.183311463 529.08508,2.45080572 C515.871023,16.4106834 493.175581,36.08859 481.398703,39.026474 L476.847637,36.5815237 C474.43238,35.2998964 471.518101,35.3590484 469.162725,36.6998277 L427.564395,60.6761147 C424.71,57.5804922 420.438387,54.3074135 414.370301,52.6117221 C402.294009,49.2203395 387.902265,53.4595679 371.454557,65.1322339 C365.146941,66.295557 352.052649,69.8249611 343.329776,79.8413706 C340.475379,77.4950069 336.842511,75.5035555 332.331368,74.8726006 C322.690297,73.4726693 312.889539,78.7569168 303.787409,89.6803239 L286.800759,105.158437 L285.702915,103.265572 C284.425423,101.037512 282.090008,99.5587119 279.495102,99.3615386 C276.74051,99.1643651 274.365174,100.248819 272.748348,102.259988 C269.714304,106.006283 242.986779,139.368024 237.218105,152.67723 C236.35979,153.998291 154.939643,281.510337 259.813743,376.193011 C249.533925,404.388809 243.805173,437.297052 246.659568,473.892437 C237.297949,460.52408 226.618915,446.702224 215.121487,432.840933 C243.865055,353.36033 180.848776,292.39431 180.22999,291.842226 C118.451281,237.856145 13.2578087,224.527221 8.80654791,223.975137 C5.55293577,223.620224 2.33924524,225.256762 0.84218444,228.17493 C-0.654876363,231.093096 -0.115934475,234.622501 2.13963713,236.988581 C9.36545061,244.540322 17.4096573,276.166939 24.4957452,304.066976 C31.1227342,330.07415 37.9493316,356.968603 45.9536167,374.300147 C64.2377194,413.912286 89.5280664,439.229351 121.12603,449.541521 C132.543614,453.268099 143.701707,454.668029 154.041407,454.668029 C176.53724,454.668029 195.060872,448.043004 204.123082,444.119252 C224.2835,468.489887 241.928856,492.604194 253.186754,513.701749 C253.206715,513.721468 253.226675,513.741185 253.246636,513.760901 C257.857584,532.945876 264.584376,552.860389 274.544822,573.563598 C275.882196,576.343743 278.69667,578 281.630908,578 C282.748714,578 283.906441,577.763391 284.984326,577.25074 C288.896644,575.417028 290.573351,570.80317 288.716997,566.918854 C254.58401,495.857556 256.859543,433.885952 273.167525,385.854509 C273.446977,385.893943 273.666545,386.130551 273.945996,386.150268 C274.664586,386.189703 277.898237,386.36716 283.088047,386.36716 C312.390518,386.36716 404.649385,380.885739 469.721628,315.936816 L478.524346,307.67525 C480.201053,306.097862 481.059368,303.909239 480.959564,301.720613 C487.307103,296.949017 493.954052,290.442294 498.125861,282.08214 C499.30355,279.716061 499.183785,276.916197 497.786528,274.628986 C496.568919,272.657251 494.532916,271.33619 492.257384,271.000994 C500.201785,260.491653 509.842857,245.467038 510.581407,233.321155 C510.681212,231.862073 510.341878,230.442424 509.66321,229.180514 C516.429925,219.440147 524.214641,205.69716 524.454171,193.728735 C524.494094,191.283784 523.356327,188.937419 521.380206,187.438902 C520.082753,186.453035 518.505849,185.900949 516.908985,185.82208 C523.795465,167.130041 534.494458,135.2471 533.556301,119.177467 C533.396614,117.008559 532.358652,114.99739 530.661983,113.617176 Z M126.036389,434.832385 C98.749961,425.939863 76.6134219,403.402943 60.2056356,367.872293 C52.8001748,351.822377 46.1532247,325.61803 39.7058829,300.300965 C33.8374046,277.211958 28.5278289,256.272141 22.5595465,241.898198 C53.9379409,247.695097 125.198035,264.474554 169.610839,303.278283 C170.149781,303.790934 220.910123,353.380047 203.184923,418.782468 C194.082793,408.233692 184.701212,397.822934 175.27971,387.648787 C173.004177,381.83217 160.069572,346.83389 165.798324,316.725509 C166.596757,312.505999 163.802243,308.463943 159.53063,307.67525 C155.318899,306.906274 151.187011,309.666702 150.368618,313.846779 C147.154927,330.74454 148.991322,348.39156 151.965482,362.982392 C145.079003,355.864432 138.392131,349.101384 131.864946,342.594661 C131.825024,342.496075 131.864946,342.397488 131.825024,342.298902 C131.665338,341.963706 116.734651,307.241468 123.301758,282.870834 C124.419564,278.730192 121.924462,274.490965 117.732692,273.386793 C113.600804,272.322057 109.249348,274.747291 108.131542,278.887932 C104.578518,292.098551 105.975774,307.044295 108.630562,319.742263 C85.1965705,297.087038 68.2498423,281.825815 66.2138395,280.01182 C62.9801883,277.152806 58.0299071,277.369696 55.1156287,280.544188 C52.2013505,283.718681 52.4408801,288.628299 55.6545707,291.507029 C56.1336302,291.940811 71.962553,306.196449 94.638034,328.062981 C83.9989218,325.203967 72.9406328,322.719581 64.8565045,322.285799 C60.265518,322.285799 56.8322586,325.32227 56.5927288,329.600934 C56.3531991,333.879596 59.6666937,337.527305 63.9981896,337.763912 C79.2083273,338.592041 108.790249,348.214103 118.531125,351.506899 C125.876703,358.822034 133.481772,366.551232 141.306409,374.635342 C126.475527,370.139787 109.448956,365.683668 98.4505489,365.072431 C94.2188571,365.131584 90.426303,368.108902 90.1867733,372.387564 C89.9472435,376.64651 93.2607381,380.313936 97.5922341,380.550544 C115.556964,381.516692 154.779957,395.161094 163.762322,398.375021 C173.862492,409.258994 183.822935,420.39929 193.483969,431.657893 C180.210029,436.705532 153.821838,443.941796 126.036389,434.832385 Z M514.014667,125.487016 C514.932864,126.551752 516.130514,127.320728 517.408005,127.75451 C514.773178,146.978918 502.217829,180.971614 496.888291,194.142798 C495.770487,196.883509 496.32939,199.998849 498.345431,202.207191 C500.201785,204.257795 502.9963,205.10564 505.770853,204.612706 C501.139944,215.260072 492.217463,226.774998 488.085574,231.448008 C485.690277,234.169002 485.51063,238.191339 487.666397,241.109505 C488.564633,242.33198 489.802204,243.219261 491.139578,243.751629 C486.00965,254.024364 476.687952,266.051943 470.180727,273.130467 C468.104803,275.378244 467.56586,278.611888 468.783471,281.411752 C469.961157,284.093309 472.536102,285.887587 475.470342,286.084761 C467.525939,293.301308 458.20424,297.14619 458.064514,297.185624 C454.351804,298.70386 452.375684,302.765632 453.53341,306.571079 C453.77294,307.399208 454.172157,308.148466 454.651216,308.818856 C390.557053,369.035616 298.677441,371.046785 278.896278,370.790459 C290.513469,343.501659 306.362353,321.497106 321.712217,306.078145 L431.875931,275.397963 C436.04774,274.23464 438.48296,269.955975 437.305272,265.835051 C436.127584,261.714128 431.796087,259.32833 427.624278,260.471934 L347.062447,282.910269 C372.372754,259.407199 392.014192,236.5548 407.304174,215.260072 C407.643507,215.122049 408.042724,215.161484 408.362095,214.984028 L466.627703,181.425113 C470.380336,179.275923 471.637866,174.524044 469.462139,170.817184 C467.286409,167.110323 462.495815,165.907566 458.743182,168.017321 L425.887688,186.926251 C456.387807,135.089361 460.180361,98.0799113 460.399929,95.6152436 C460.759224,91.3562979 457.585455,87.610003 453.27392,87.2353736 C449.002307,87.0382002 445.149871,90.0549534 444.770615,94.3138991 C444.730694,94.885702 440.918179,130.830415 410.717472,181.405396 L407.144486,119.650683 C406.884997,115.411454 403.611423,112.17781 398.86075,112.355267 C394.529254,112.591874 391.21576,116.2593 391.475251,120.537963 L396.265845,203.488818 C379.678411,227.149628 357.402146,252.979345 327.6805,279.400583 L330.335286,198.934112 C330.494974,194.655449 327.081674,191.066894 322.750179,190.928871 C318.698134,190.771133 314.805775,194.162515 314.666051,198.421462 L311.492281,294.188589 C295.483711,310.041332 278.796473,332.538817 266.241124,360.419137 C178.114145,275.240223 247.258392,165.848414 250.971104,159.992363 C254.603972,151.789949 268.197283,133.433104 277.838355,120.991462 L278.018002,121.287222 C279.19569,123.337826 281.271614,124.757474 283.62699,125.112386 C285.982365,125.506733 288.397624,124.757474 290.154175,123.160369 L315.125149,100.307971 C320.953706,93.3871841 326.403007,89.6803239 330.015915,90.1929749 C333.509057,90.666191 336.323531,95.1420275 336.982237,96.6405454 C338.259729,99.5784292 341.193967,101.471294 344.487502,101.313555 C347.721153,101.175534 350.555589,99.1052131 351.61351,96.0687424 C355.885125,83.6862521 372.272951,80.6497815 375.965701,80.0779787 C377.143388,79.8610879 378.261193,79.3878718 379.219313,78.6780475 C395.168001,67.0053813 404.649385,66.0983837 409.859157,67.4588802 C415.58791,68.9573981 417.82352,73.8078641 417.863443,73.9064508 C418.701796,75.996489 420.458347,77.613311 422.594153,78.3428527 C424.729961,79.0526769 427.105297,78.8160688 429.081418,77.7118977 L473.21477,52.2765273 L476.248814,53.9130667 C477.566226,54.6228909 479.103209,54.8792164 480.620232,54.8200644 C494.732525,53.6764585 514.114472,38.1786282 527.208763,26.1116154 C526.150841,72.881149 512.597449,117.659231 512.437763,118.171882 C511.679252,120.715419 512.278077,123.475847 514.014667,125.487016 Z" id="Shape" fill="#000000" fill-rule="nonzero"></path>
        </g>
    </g>
</svg>